<svg xmlns="http://www.w3.org/2000/svg" viewBox="0 0 400 340" width="400" height="340">
  <defs>
    <linearGradient id="body1" x1="0%" y1="0%" x2="100%" y2="100%">
      <stop offset="0%" style="stop-color:#c4b5fd"/>
      <stop offset="100%" style="stop-color:#a78bfa"/>
    </linearGradient>
    <linearGradient id="body2" x1="0%" y1="0%" x2="100%" y2="100%">
      <stop offset="0%" style="stop-color:#a78bfa"/>
      <stop offset="100%" style="stop-color:#8b5cf6"/>
    </linearGradient>
    <linearGradient id="body3" x1="0%" y1="0%" x2="100%" y2="100%">
      <stop offset="0%" style="stop-color:#8b5cf6"/>
      <stop offset="100%" style="stop-color:#7c3aed"/>
    </linearGradient>
  </defs>

  <!-- Back rectangle (largest, lightest) — centered -->
  <rect x="110" y="20" width="200" height="160" rx="20" fill="url(#body1)" opacity="0.7"/>

  <!-- Middle rectangle — centered -->
  <rect x="90" y="55" width="200" height="160" rx="20" fill="url(#body2)" opacity="0.85"/>

  <!-- Front rectangle (face) — centered -->
  <rect x="100" y="35" width="200" height="170" rx="22" fill="url(#body3)"/>

  <!-- Eyes -->
  <circle cx="162" cy="115" r="16" fill="white"/>
  <circle cx="238" cy="115" r="16" fill="white"/>
  <circle cx="166" cy="118" r="8" fill="#1e1033"/>
  <circle cx="242" cy="118" r="8" fill="#1e1033"/>
  <!-- Eye shine -->
  <circle cx="170" cy="113" r="3" fill="white" opacity="0.9"/>
  <circle cx="246" cy="113" r="3" fill="white" opacity="0.9"/>

  <!-- Friendly mouth -->
  <path d="M182 153 Q200 169 218 153" stroke="#1e1033" stroke-width="4" fill="none" stroke-linecap="round"/>

  <!-- Split line on face -->
  <line x1="200" y1="45" x2="200" y2="60" stroke="white" stroke-width="3" stroke-linecap="round" opacity="0.5"/>
  <line x1="173" y1="53" x2="227" y2="53" stroke="white" stroke-width="3" stroke-linecap="round" opacity="0.5"/>

  <!-- Legs -->
  <rect x="152" y="205" width="24" height="40" rx="10" fill="url(#body3)"/>
  <rect x="224" y="205" width="24" height="40" rx="10" fill="url(#body3)"/>

  <!-- Feet -->
  <ellipse cx="164" cy="247" rx="18" ry="10" fill="#7c3aed"/>
  <ellipse cx="236" cy="247" rx="18" ry="10" fill="#7c3aed"/>

  <!-- Arms -->
  <rect x="68" y="100" width="36" height="18" rx="9" fill="url(#body2)"/>
  <rect x="296" y="100" width="36" height="18" rx="9" fill="url(#body2)"/>
</svg>
